<svg id="visual" viewBox="0 0 960 540" width="960" height="540" xmlns="http://www.w3.org/2000/svg" xmlns:xlink="http://www.w3.org/1999/xlink" version="1.1"><rect x="0" y="0" width="960" height="540" fill="#001122"></rect><defs><linearGradient id="grad1_0" x1="43.8%" y1="100%" x2="100%" y2="0%"><stop offset="14.444444444444446%" stop-color="#001122" stop-opacity="1"></stop><stop offset="85.55555555555554%" stop-color="#001122" stop-opacity="1"></stop></linearGradient></defs><defs><linearGradient id="grad2_0" x1="0%" y1="100%" x2="56.3%" y2="0%"><stop offset="14.444444444444446%" stop-color="#001122" stop-opacity="1"></stop><stop offset="85.55555555555554%" stop-color="#001122" stop-opacity="1"></stop></linearGradient></defs><g transform="translate(960, 540)"><path d="M-351 0C-283.3 -27.3 -215.6 -54.5 -194.9 -112.5C-174.1 -170.5 -200.2 -259.1 -175.5 -304C-150.8 -348.8 -75.4 -349.9 0 -351L0 0Z" fill="#FCAF3C"></path></g><g transform="translate(0, 0)"><path d="M351 0C306.9 40.9 262.8 81.7 239 138C215.3 194.3 211.9 265.9 175.5 304C139.1 342 69.5 346.5 0 351L0 0Z" fill="#FCAF3C"></path></g></svg>